<svg width="332" height="332" viewBox="0 0 332 332" fill="none" xmlns="http://www.w3.org/2000/svg">
<g clip-path="url(#clip0_18_63)">
<path d="M111.222 71.1422C163.595 40.9047 230.564 58.849 260.802 111.222C291.039 163.595 273.095 230.564 220.722 260.802C168.349 291.039 101.38 273.095 71.1423 220.722C40.9047 168.349 58.849 101.38 111.222 71.1422Z" fill="#FBF222"/>
<path d="M111.222 71.1422C163.595 40.9047 230.564 58.849 260.802 111.222C291.039 163.595 273.095 230.564 220.722 260.802C168.349 291.039 101.38 273.095 71.1423 220.722C40.9047 168.349 58.849 101.38 111.222 71.1422Z" fill="#FBF222"/>
<path d="M111.222 71.1422C163.595 40.9047 230.564 58.849 260.802 111.222C291.039 163.595 273.095 230.564 220.722 260.802C168.349 291.039 101.38 273.095 71.1423 220.722C40.9047 168.349 58.849 101.38 111.222 71.1422Z" fill="#FBF222"/>
<path d="M111.222 71.1422C163.595 40.9047 230.564 58.849 260.802 111.222C291.039 163.595 273.095 230.564 220.722 260.802C168.349 291.039 101.38 273.095 71.1423 220.722C40.9047 168.349 58.849 101.38 111.222 71.1422Z" stroke="#FBF222" stroke-width="24"/>
<path d="M80.1504 215.521L75.5941 207.63L105.188 190.544L109.744 198.435L98.8933 204.7C120.156 241.322 167.303 253.766 204.321 232.394C241.338 211.022 254.135 163.969 233.051 127.244L222.2 133.509L217.644 125.617L247.238 108.531L251.794 116.423L240.943 122.688C264.573 163.822 250.201 216.427 208.877 240.285C167.553 264.144 114.81 250.288 91.0016 209.256L80.1504 215.521Z" fill="url(#paint0_linear_18_63)"/>
<ellipse cx="132.94" cy="151.284" rx="10.2516" ry="55.8141" transform="rotate(-30 132.94 151.284)" fill="url(#paint1_linear_18_63)"/>
<ellipse cx="169.439" cy="130.212" rx="10.2516" ry="55.8141" transform="rotate(-30 169.439 130.212)" fill="url(#paint2_linear_18_63)"/>
</g>
<defs>
<linearGradient id="paint0_linear_18_63" x1="161.416" y1="158.08" x2="208.877" y2="240.285" gradientUnits="userSpaceOnUse">
<stop offset="0.846154"/>
<stop offset="0.961538"/>
</linearGradient>
<linearGradient id="paint1_linear_18_63" x1="132.94" y1="95.4702" x2="132.94" y2="207.098" gradientUnits="userSpaceOnUse">
<stop offset="0.846154"/>
<stop offset="0.961538"/>
</linearGradient>
<linearGradient id="paint2_linear_18_63" x1="169.439" y1="74.3975" x2="169.439" y2="186.026" gradientUnits="userSpaceOnUse">
<stop offset="0.846154"/>
<stop offset="0.961538"/>
</linearGradient>
<clipPath id="clip0_18_63">
<rect width="243" height="243" fill="white" transform="translate(0 121.5) rotate(-30)"/>
</clipPath>
</defs>
</svg>
